<?xml version="1.0" encoding="utf-8" standalone="no"?>
<!DOCTYPE svg PUBLIC "-//W3C//DTD SVG 1.1//EN"
  "http://www.w3.org/Graphics/SVG/1.1/DTD/svg11.dtd">
<svg xmlns:xlink="http://www.w3.org/1999/xlink" width="432pt" height="324pt" viewBox="0 0 432 324" xmlns="http://www.w3.org/2000/svg" version="1.1">
 <metadata>
  <rdf:RDF xmlns:dc="http://purl.org/dc/elements/1.1/" xmlns:cc="http://creativecommons.org/ns#" xmlns:rdf="http://www.w3.org/1999/02/22-rdf-syntax-ns#">
   <cc:Work>
    <dc:type rdf:resource="http://purl.org/dc/dcmitype/StillImage"/>
    <dc:date>2025-06-26T06:03:32.295532</dc:date>
    <dc:format>image/svg+xml</dc:format>
    <dc:creator>
     <cc:Agent>
      <dc:title>Matplotlib v3.10.0, https://matplotlib.org/</dc:title>
     </cc:Agent>
    </dc:creator>
   </cc:Work>
  </rdf:RDF>
 </metadata>
 <defs>
  <style type="text/css">*{stroke-linejoin: round; stroke-linecap: butt}</style>
 </defs>
 <g id="figure_1">
  <g id="patch_1">
   <path d="M 0 324 
L 432 324 
L 432 0 
L 0 0 
z
" style="fill: #ffffff"/>
  </g>
  <g id="axes_1">
   <g id="patch_2">
    <path d="M 153.71625 281.99625 
L 420.12 281.99625 
L 420.12 30.12 
L 153.71625 30.12 
z
" style="fill: #ffffff"/>
   </g>
   <g id="matplotlib.axis_1">
    <g id="xtick_1">
     <g id="line2d_1">
      <path d="M 165.825511 281.99625 
L 165.825511 30.12 
" clip-path="url(#p21a9e64174)" style="fill: none; stroke-dasharray: 1.85,0.8; stroke-dashoffset: 0; stroke: #cccccc; stroke-opacity: 0.7; stroke-width: 0.5"/>
     </g>
     <g id="line2d_2"/>
     <g id="text_1">
      <!-- 0.0 -->
      <g style="fill: #262626" transform="translate(157.078793 293.854531) scale(0.11 -0.11)">
       <defs>
        <path id="DejaVuSerif-30" d="M 2034 219 
Q 2513 219 2750 744 
Q 2988 1269 2988 2328 
Q 2988 3391 2750 3916 
Q 2513 4441 2034 4441 
Q 1556 4441 1318 3916 
Q 1081 3391 1081 2328 
Q 1081 1269 1318 744 
Q 1556 219 2034 219 
z
M 2034 -91 
Q 1275 -91 848 546 
Q 422 1184 422 2328 
Q 422 3475 848 4112 
Q 1275 4750 2034 4750 
Q 2797 4750 3222 4112 
Q 3647 3475 3647 2328 
Q 3647 1184 3222 546 
Q 2797 -91 2034 -91 
z
" transform="scale(0.015625)"/>
        <path id="DejaVuSerif-2e" d="M 603 325 
Q 603 500 722 622 
Q 841 744 1019 744 
Q 1191 744 1312 622 
Q 1434 500 1434 325 
Q 1434 153 1312 31 
Q 1191 -91 1019 -91 
Q 841 -91 722 29 
Q 603 150 603 325 
z
" transform="scale(0.015625)"/>
       </defs>
       <use xlink:href="#DejaVuSerif-30"/>
       <use xlink:href="#DejaVuSerif-2e" transform="translate(63.623047 0)"/>
       <use xlink:href="#DejaVuSerif-30" transform="translate(95.410156 0)"/>
      </g>
     </g>
    </g>
    <g id="xtick_2">
     <g id="line2d_3">
      <path d="M 204.370487 281.99625 
L 204.370487 30.12 
" clip-path="url(#p21a9e64174)" style="fill: none; stroke-dasharray: 1.85,0.8; stroke-dashoffset: 0; stroke: #cccccc; stroke-opacity: 0.7; stroke-width: 0.5"/>
     </g>
     <g id="line2d_4"/>
     <g id="text_2">
      <!-- 0.5 -->
      <g style="fill: #262626" transform="translate(195.623769 293.854531) scale(0.11 -0.11)">
       <defs>
        <path id="DejaVuSerif-35" d="M 3219 4666 
L 3219 4153 
L 1081 4153 
L 1081 2816 
Q 1244 2928 1461 2984 
Q 1678 3041 1947 3041 
Q 2703 3041 3140 2622 
Q 3578 2203 3578 1478 
Q 3578 738 3136 323 
Q 2694 -91 1894 -91 
Q 1572 -91 1234 -12 
Q 897 66 544 225 
L 544 1131 
L 897 1131 
Q 925 688 1179 453 
Q 1434 219 1894 219 
Q 2388 219 2653 544 
Q 2919 869 2919 1478 
Q 2919 2084 2655 2407 
Q 2391 2731 1894 2731 
Q 1613 2731 1398 2631 
Q 1184 2531 1019 2322 
L 750 2322 
L 750 4666 
L 3219 4666 
z
" transform="scale(0.015625)"/>
       </defs>
       <use xlink:href="#DejaVuSerif-30"/>
       <use xlink:href="#DejaVuSerif-2e" transform="translate(63.623047 0)"/>
       <use xlink:href="#DejaVuSerif-35" transform="translate(95.410156 0)"/>
      </g>
     </g>
    </g>
    <g id="xtick_3">
     <g id="line2d_5">
      <path d="M 242.915463 281.99625 
L 242.915463 30.12 
" clip-path="url(#p21a9e64174)" style="fill: none; stroke-dasharray: 1.85,0.8; stroke-dashoffset: 0; stroke: #cccccc; stroke-opacity: 0.7; stroke-width: 0.5"/>
     </g>
     <g id="line2d_6"/>
     <g id="text_3">
      <!-- 1.0 -->
      <g style="fill: #262626" transform="translate(234.168745 293.854531) scale(0.11 -0.11)">
       <defs>
        <path id="DejaVuSerif-31" d="M 909 0 
L 909 331 
L 1722 331 
L 1722 4213 
L 781 3603 
L 781 4013 
L 1919 4750 
L 2350 4750 
L 2350 331 
L 3163 331 
L 3163 0 
L 909 0 
z
" transform="scale(0.015625)"/>
       </defs>
       <use xlink:href="#DejaVuSerif-31"/>
       <use xlink:href="#DejaVuSerif-2e" transform="translate(63.623047 0)"/>
       <use xlink:href="#DejaVuSerif-30" transform="translate(95.410156 0)"/>
      </g>
     </g>
    </g>
    <g id="xtick_4">
     <g id="line2d_7">
      <path d="M 281.46044 281.99625 
L 281.46044 30.12 
" clip-path="url(#p21a9e64174)" style="fill: none; stroke-dasharray: 1.85,0.8; stroke-dashoffset: 0; stroke: #cccccc; stroke-opacity: 0.7; stroke-width: 0.5"/>
     </g>
     <g id="line2d_8"/>
     <g id="text_4">
      <!-- 1.5 -->
      <g style="fill: #262626" transform="translate(272.713721 293.854531) scale(0.11 -0.11)">
       <use xlink:href="#DejaVuSerif-31"/>
       <use xlink:href="#DejaVuSerif-2e" transform="translate(63.623047 0)"/>
       <use xlink:href="#DejaVuSerif-35" transform="translate(95.410156 0)"/>
      </g>
     </g>
    </g>
    <g id="xtick_5">
     <g id="line2d_9">
      <path d="M 320.005416 281.99625 
L 320.005416 30.12 
" clip-path="url(#p21a9e64174)" style="fill: none; stroke-dasharray: 1.85,0.8; stroke-dashoffset: 0; stroke: #cccccc; stroke-opacity: 0.7; stroke-width: 0.5"/>
     </g>
     <g id="line2d_10"/>
     <g id="text_5">
      <!-- 2.0 -->
      <g style="fill: #262626" transform="translate(311.258697 293.854531) scale(0.11 -0.11)">
       <defs>
        <path id="DejaVuSerif-32" d="M 819 3553 
L 469 3553 
L 469 4384 
Q 803 4563 1142 4656 
Q 1481 4750 1806 4750 
Q 2534 4750 2956 4397 
Q 3378 4044 3378 3438 
Q 3378 2753 2422 1800 
Q 2347 1728 2309 1691 
L 1131 513 
L 3078 513 
L 3078 1088 
L 3444 1088 
L 3444 0 
L 434 0 
L 434 341 
L 1850 1753 
Q 2319 2222 2519 2614 
Q 2719 3006 2719 3438 
Q 2719 3909 2473 4175 
Q 2228 4441 1797 4441 
Q 1350 4441 1106 4219 
Q 863 3997 819 3553 
z
" transform="scale(0.015625)"/>
       </defs>
       <use xlink:href="#DejaVuSerif-32"/>
       <use xlink:href="#DejaVuSerif-2e" transform="translate(63.623047 0)"/>
       <use xlink:href="#DejaVuSerif-30" transform="translate(95.410156 0)"/>
      </g>
     </g>
    </g>
    <g id="xtick_6">
     <g id="line2d_11">
      <path d="M 358.550392 281.99625 
L 358.550392 30.12 
" clip-path="url(#p21a9e64174)" style="fill: none; stroke-dasharray: 1.85,0.8; stroke-dashoffset: 0; stroke: #cccccc; stroke-opacity: 0.7; stroke-width: 0.5"/>
     </g>
     <g id="line2d_12"/>
     <g id="text_6">
      <!-- 2.5 -->
      <g style="fill: #262626" transform="translate(349.803673 293.854531) scale(0.11 -0.11)">
       <use xlink:href="#DejaVuSerif-32"/>
       <use xlink:href="#DejaVuSerif-2e" transform="translate(63.623047 0)"/>
       <use xlink:href="#DejaVuSerif-35" transform="translate(95.410156 0)"/>
      </g>
     </g>
    </g>
    <g id="xtick_7">
     <g id="line2d_13">
      <path d="M 397.095368 281.99625 
L 397.095368 30.12 
" clip-path="url(#p21a9e64174)" style="fill: none; stroke-dasharray: 1.85,0.8; stroke-dashoffset: 0; stroke: #cccccc; stroke-opacity: 0.7; stroke-width: 0.5"/>
     </g>
     <g id="line2d_14"/>
     <g id="text_7">
      <!-- 3.0 -->
      <g style="fill: #262626" transform="translate(388.348649 293.854531) scale(0.11 -0.11)">
       <defs>
        <path id="DejaVuSerif-33" d="M 622 4469 
Q 988 4606 1323 4678 
Q 1659 4750 1953 4750 
Q 2638 4750 3022 4454 
Q 3406 4159 3406 3634 
Q 3406 3213 3140 2930 
Q 2875 2647 2388 2547 
Q 2963 2466 3280 2130 
Q 3597 1794 3597 1259 
Q 3597 606 3158 257 
Q 2719 -91 1894 -91 
Q 1528 -91 1179 -12 
Q 831 66 488 225 
L 488 1131 
L 838 1131 
Q 869 681 1141 450 
Q 1413 219 1906 219 
Q 2384 219 2661 495 
Q 2938 772 2938 1253 
Q 2938 1803 2653 2086 
Q 2369 2369 1819 2369 
L 1522 2369 
L 1522 2688 
L 1678 2688 
Q 2225 2688 2498 2914 
Q 2772 3141 2772 3597 
Q 2772 4006 2547 4223 
Q 2322 4441 1900 4441 
Q 1478 4441 1245 4241 
Q 1013 4041 972 3647 
L 622 3647 
L 622 4469 
z
" transform="scale(0.015625)"/>
       </defs>
       <use xlink:href="#DejaVuSerif-33"/>
       <use xlink:href="#DejaVuSerif-2e" transform="translate(63.623047 0)"/>
       <use xlink:href="#DejaVuSerif-30" transform="translate(95.410156 0)"/>
      </g>
     </g>
    </g>
    <g id="text_8">
     <!-- Time -->
     <g style="fill: #262626" transform="translate(270.0075 309.260312) scale(0.12 -0.12)">
      <defs>
       <path id="DejaVuSerif-Bold-54" d="M 1159 0 
L 1159 378 
L 1778 378 
L 1778 4238 
L 500 4238 
L 500 3500 
L 72 3500 
L 72 4666 
L 4697 4666 
L 4697 3500 
L 4275 3500 
L 4275 4238 
L 2988 4238 
L 2988 378 
L 3609 378 
L 3609 0 
L 1159 0 
z
" transform="scale(0.015625)"/>
       <path id="DejaVuSerif-Bold-69" d="M 588 4263 
Q 588 4516 763 4689 
Q 938 4863 1191 4863 
Q 1438 4863 1611 4689 
Q 1784 4516 1784 4263 
Q 1784 4016 1611 3842 
Q 1438 3669 1191 3669 
Q 938 3669 763 3841 
Q 588 4013 588 4263 
z
M 1797 378 
L 2272 378 
L 2272 0 
L 219 0 
L 219 378 
L 691 378 
L 691 2944 
L 219 2944 
L 219 3322 
L 1797 3322 
L 1797 378 
z
" transform="scale(0.015625)"/>
       <path id="DejaVuSerif-Bold-6d" d="M 3884 2778 
Q 4116 3109 4384 3261 
Q 4653 3413 5013 3413 
Q 5584 3413 5867 3089 
Q 6150 2766 6150 2113 
L 6150 378 
L 6625 378 
L 6625 0 
L 4647 0 
L 4647 378 
L 5044 378 
L 5044 1947 
Q 5044 2569 4948 2731 
Q 4853 2894 4594 2894 
Q 4300 2894 4137 2667 
Q 3975 2441 3975 2022 
L 3975 378 
L 4372 378 
L 4372 0 
L 2472 0 
L 2472 378 
L 2869 378 
L 2869 1947 
Q 2869 2569 2772 2731 
Q 2675 2894 2419 2894 
Q 2122 2894 1959 2667 
Q 1797 2441 1797 2022 
L 1797 378 
L 2194 378 
L 2194 0 
L 219 0 
L 219 378 
L 691 378 
L 691 2944 
L 219 2944 
L 219 3322 
L 1797 3322 
L 1797 2853 
Q 1991 3144 2241 3278 
Q 2491 3413 2834 3413 
Q 3241 3413 3494 3258 
Q 3747 3103 3884 2778 
z
" transform="scale(0.015625)"/>
       <path id="DejaVuSerif-Bold-65" d="M 2566 1875 
Q 2566 2531 2444 2795 
Q 2322 3059 2028 3059 
Q 1744 3059 1620 2800 
Q 1497 2541 1497 1931 
L 1497 1875 
L 2566 1875 
z
M 3781 1503 
L 1497 1503 
L 1497 1478 
Q 1497 834 1690 548 
Q 1884 263 2316 263 
Q 2675 263 2897 453 
Q 3119 644 3181 1006 
L 3700 1006 
Q 3566 441 3166 175 
Q 2766 -91 2047 -91 
Q 1184 -91 723 364 
Q 263 819 263 1663 
Q 263 2488 734 2950 
Q 1206 3413 2047 3413 
Q 2872 3413 3312 2927 
Q 3753 2441 3781 1503 
z
" transform="scale(0.015625)"/>
      </defs>
      <use xlink:href="#DejaVuSerif-Bold-54"/>
      <use xlink:href="#DejaVuSerif-Bold-69" transform="translate(74.414062 0)"/>
      <use xlink:href="#DejaVuSerif-Bold-6d" transform="translate(112.402344 0)"/>
      <use xlink:href="#DejaVuSerif-Bold-65" transform="translate(218.212891 0)"/>
     </g>
    </g>
   </g>
   <g id="matplotlib.axis_2">
    <g id="ytick_1">
     <g id="line2d_15">
      <path d="M 153.71625 270.54733 
L 420.12 270.54733 
" clip-path="url(#p21a9e64174)" style="fill: none; stroke-dasharray: 1.85,0.8; stroke-dashoffset: 0; stroke: #cccccc; stroke-opacity: 0.7; stroke-width: 0.5"/>
     </g>
     <g id="line2d_16"/>
     <g id="text_9">
      <!-- 0.0000000000000000 -->
      <g style="fill: #262626" transform="translate(27.741563 274.72647) scale(0.11 -0.11)">
       <use xlink:href="#DejaVuSerif-30"/>
       <use xlink:href="#DejaVuSerif-2e" transform="translate(63.623047 0)"/>
       <use xlink:href="#DejaVuSerif-30" transform="translate(95.410156 0)"/>
       <use xlink:href="#DejaVuSerif-30" transform="translate(159.033203 0)"/>
       <use xlink:href="#DejaVuSerif-30" transform="translate(222.65625 0)"/>
       <use xlink:href="#DejaVuSerif-30" transform="translate(286.279297 0)"/>
       <use xlink:href="#DejaVuSerif-30" transform="translate(349.902344 0)"/>
       <use xlink:href="#DejaVuSerif-30" transform="translate(413.525391 0)"/>
       <use xlink:href="#DejaVuSerif-30" transform="translate(477.148438 0)"/>
       <use xlink:href="#DejaVuSerif-30" transform="translate(540.771484 0)"/>
       <use xlink:href="#DejaVuSerif-30" transform="translate(604.394531 0)"/>
       <use xlink:href="#DejaVuSerif-30" transform="translate(668.017578 0)"/>
       <use xlink:href="#DejaVuSerif-30" transform="translate(731.640625 0)"/>
       <use xlink:href="#DejaVuSerif-30" transform="translate(795.263672 0)"/>
       <use xlink:href="#DejaVuSerif-30" transform="translate(858.886719 0)"/>
       <use xlink:href="#DejaVuSerif-30" transform="translate(922.509766 0)"/>
       <use xlink:href="#DejaVuSerif-30" transform="translate(986.132812 0)"/>
       <use xlink:href="#DejaVuSerif-30" transform="translate(1049.755859 0)"/>
      </g>
     </g>
    </g>
    <g id="ytick_2">
     <g id="line2d_17">
      <path d="M 153.71625 218.985976 
L 420.12 218.985976 
" clip-path="url(#p21a9e64174)" style="fill: none; stroke-dasharray: 1.85,0.8; stroke-dashoffset: 0; stroke: #cccccc; stroke-opacity: 0.7; stroke-width: 0.5"/>
     </g>
     <g id="line2d_18"/>
     <g id="text_10">
      <!-- 0.0000000000000000 -->
      <g style="fill: #262626" transform="translate(27.741563 223.165116) scale(0.11 -0.11)">
       <use xlink:href="#DejaVuSerif-30"/>
       <use xlink:href="#DejaVuSerif-2e" transform="translate(63.623047 0)"/>
       <use xlink:href="#DejaVuSerif-30" transform="translate(95.410156 0)"/>
       <use xlink:href="#DejaVuSerif-30" transform="translate(159.033203 0)"/>
       <use xlink:href="#DejaVuSerif-30" transform="translate(222.65625 0)"/>
       <use xlink:href="#DejaVuSerif-30" transform="translate(286.279297 0)"/>
       <use xlink:href="#DejaVuSerif-30" transform="translate(349.902344 0)"/>
       <use xlink:href="#DejaVuSerif-30" transform="translate(413.525391 0)"/>
       <use xlink:href="#DejaVuSerif-30" transform="translate(477.148438 0)"/>
       <use xlink:href="#DejaVuSerif-30" transform="translate(540.771484 0)"/>
       <use xlink:href="#DejaVuSerif-30" transform="translate(604.394531 0)"/>
       <use xlink:href="#DejaVuSerif-30" transform="translate(668.017578 0)"/>
       <use xlink:href="#DejaVuSerif-30" transform="translate(731.640625 0)"/>
       <use xlink:href="#DejaVuSerif-30" transform="translate(795.263672 0)"/>
       <use xlink:href="#DejaVuSerif-30" transform="translate(858.886719 0)"/>
       <use xlink:href="#DejaVuSerif-30" transform="translate(922.509766 0)"/>
       <use xlink:href="#DejaVuSerif-30" transform="translate(986.132812 0)"/>
       <use xlink:href="#DejaVuSerif-30" transform="translate(1049.755859 0)"/>
      </g>
     </g>
    </g>
    <g id="ytick_3">
     <g id="line2d_19">
      <path d="M 153.71625 167.424622 
L 420.12 167.424622 
" clip-path="url(#p21a9e64174)" style="fill: none; stroke-dasharray: 1.85,0.8; stroke-dashoffset: 0; stroke: #cccccc; stroke-opacity: 0.7; stroke-width: 0.5"/>
     </g>
     <g id="line2d_20"/>
     <g id="text_11">
      <!-- 0.0000000000000000 -->
      <g style="fill: #262626" transform="translate(27.741563 171.603762) scale(0.11 -0.11)">
       <use xlink:href="#DejaVuSerif-30"/>
       <use xlink:href="#DejaVuSerif-2e" transform="translate(63.623047 0)"/>
       <use xlink:href="#DejaVuSerif-30" transform="translate(95.410156 0)"/>
       <use xlink:href="#DejaVuSerif-30" transform="translate(159.033203 0)"/>
       <use xlink:href="#DejaVuSerif-30" transform="translate(222.65625 0)"/>
       <use xlink:href="#DejaVuSerif-30" transform="translate(286.279297 0)"/>
       <use xlink:href="#DejaVuSerif-30" transform="translate(349.902344 0)"/>
       <use xlink:href="#DejaVuSerif-30" transform="translate(413.525391 0)"/>
       <use xlink:href="#DejaVuSerif-30" transform="translate(477.148438 0)"/>
       <use xlink:href="#DejaVuSerif-30" transform="translate(540.771484 0)"/>
       <use xlink:href="#DejaVuSerif-30" transform="translate(604.394531 0)"/>
       <use xlink:href="#DejaVuSerif-30" transform="translate(668.017578 0)"/>
       <use xlink:href="#DejaVuSerif-30" transform="translate(731.640625 0)"/>
       <use xlink:href="#DejaVuSerif-30" transform="translate(795.263672 0)"/>
       <use xlink:href="#DejaVuSerif-30" transform="translate(858.886719 0)"/>
       <use xlink:href="#DejaVuSerif-30" transform="translate(922.509766 0)"/>
       <use xlink:href="#DejaVuSerif-30" transform="translate(986.132812 0)"/>
       <use xlink:href="#DejaVuSerif-30" transform="translate(1049.755859 0)"/>
      </g>
     </g>
    </g>
    <g id="ytick_4">
     <g id="line2d_21">
      <path d="M 153.71625 115.863268 
L 420.12 115.863268 
" clip-path="url(#p21a9e64174)" style="fill: none; stroke-dasharray: 1.85,0.8; stroke-dashoffset: 0; stroke: #cccccc; stroke-opacity: 0.7; stroke-width: 0.5"/>
     </g>
     <g id="line2d_22"/>
     <g id="text_12">
      <!-- 0.0000000000000000 -->
      <g style="fill: #262626" transform="translate(27.741563 120.042408) scale(0.11 -0.11)">
       <use xlink:href="#DejaVuSerif-30"/>
       <use xlink:href="#DejaVuSerif-2e" transform="translate(63.623047 0)"/>
       <use xlink:href="#DejaVuSerif-30" transform="translate(95.410156 0)"/>
       <use xlink:href="#DejaVuSerif-30" transform="translate(159.033203 0)"/>
       <use xlink:href="#DejaVuSerif-30" transform="translate(222.65625 0)"/>
       <use xlink:href="#DejaVuSerif-30" transform="translate(286.279297 0)"/>
       <use xlink:href="#DejaVuSerif-30" transform="translate(349.902344 0)"/>
       <use xlink:href="#DejaVuSerif-30" transform="translate(413.525391 0)"/>
       <use xlink:href="#DejaVuSerif-30" transform="translate(477.148438 0)"/>
       <use xlink:href="#DejaVuSerif-30" transform="translate(540.771484 0)"/>
       <use xlink:href="#DejaVuSerif-30" transform="translate(604.394531 0)"/>
       <use xlink:href="#DejaVuSerif-30" transform="translate(668.017578 0)"/>
       <use xlink:href="#DejaVuSerif-30" transform="translate(731.640625 0)"/>
       <use xlink:href="#DejaVuSerif-30" transform="translate(795.263672 0)"/>
       <use xlink:href="#DejaVuSerif-30" transform="translate(858.886719 0)"/>
       <use xlink:href="#DejaVuSerif-30" transform="translate(922.509766 0)"/>
       <use xlink:href="#DejaVuSerif-30" transform="translate(986.132812 0)"/>
       <use xlink:href="#DejaVuSerif-30" transform="translate(1049.755859 0)"/>
      </g>
     </g>
    </g>
    <g id="ytick_5">
     <g id="line2d_23">
      <path d="M 153.71625 64.301914 
L 420.12 64.301914 
" clip-path="url(#p21a9e64174)" style="fill: none; stroke-dasharray: 1.85,0.8; stroke-dashoffset: 0; stroke: #cccccc; stroke-opacity: 0.7; stroke-width: 0.5"/>
     </g>
     <g id="line2d_24"/>
     <g id="text_13">
      <!-- 0.0000000000000000 -->
      <g style="fill: #262626" transform="translate(27.741563 68.481055) scale(0.11 -0.11)">
       <use xlink:href="#DejaVuSerif-30"/>
       <use xlink:href="#DejaVuSerif-2e" transform="translate(63.623047 0)"/>
       <use xlink:href="#DejaVuSerif-30" transform="translate(95.410156 0)"/>
       <use xlink:href="#DejaVuSerif-30" transform="translate(159.033203 0)"/>
       <use xlink:href="#DejaVuSerif-30" transform="translate(222.65625 0)"/>
       <use xlink:href="#DejaVuSerif-30" transform="translate(286.279297 0)"/>
       <use xlink:href="#DejaVuSerif-30" transform="translate(349.902344 0)"/>
       <use xlink:href="#DejaVuSerif-30" transform="translate(413.525391 0)"/>
       <use xlink:href="#DejaVuSerif-30" transform="translate(477.148438 0)"/>
       <use xlink:href="#DejaVuSerif-30" transform="translate(540.771484 0)"/>
       <use xlink:href="#DejaVuSerif-30" transform="translate(604.394531 0)"/>
       <use xlink:href="#DejaVuSerif-30" transform="translate(668.017578 0)"/>
       <use xlink:href="#DejaVuSerif-30" transform="translate(731.640625 0)"/>
       <use xlink:href="#DejaVuSerif-30" transform="translate(795.263672 0)"/>
       <use xlink:href="#DejaVuSerif-30" transform="translate(858.886719 0)"/>
       <use xlink:href="#DejaVuSerif-30" transform="translate(922.509766 0)"/>
       <use xlink:href="#DejaVuSerif-30" transform="translate(986.132812 0)"/>
       <use xlink:href="#DejaVuSerif-30" transform="translate(1049.755859 0)"/>
      </g>
     </g>
    </g>
    <g id="text_14">
     <!-- Entanglement Entropy (shifted) -->
     <g style="fill: #262626" transform="translate(21.075313 263.397187) rotate(-90) scale(0.12 -0.12)">
      <defs>
       <path id="DejaVuSerif-Bold-45" d="M 300 0 
L 300 378 
L 897 378 
L 897 4288 
L 300 4288 
L 300 4666 
L 4494 4666 
L 4494 3566 
L 4063 3566 
L 4063 4238 
L 2100 4238 
L 2100 2741 
L 3322 2741 
L 3322 3334 
L 3750 3334 
L 3750 1722 
L 3322 1722 
L 3322 2316 
L 2100 2316 
L 2100 428 
L 4122 428 
L 4122 1100 
L 4550 1100 
L 4550 0 
L 300 0 
z
" transform="scale(0.015625)"/>
       <path id="DejaVuSerif-Bold-6e" d="M 219 0 
L 219 378 
L 691 378 
L 691 2944 
L 219 2944 
L 219 3322 
L 1797 3322 
L 1797 2853 
Q 1997 3150 2253 3281 
Q 2509 3413 2900 3413 
Q 3459 3413 3745 3083 
Q 4031 2753 4031 2113 
L 4031 378 
L 4506 378 
L 4506 0 
L 2522 0 
L 2522 378 
L 2925 378 
L 2925 2144 
Q 2925 2566 2817 2730 
Q 2709 2894 2444 2894 
Q 2109 2894 1953 2648 
Q 1797 2403 1797 1869 
L 1797 378 
L 2203 378 
L 2203 0 
L 219 0 
z
" transform="scale(0.015625)"/>
       <path id="DejaVuSerif-Bold-74" d="M 634 2944 
L 153 2944 
L 153 3322 
L 634 3322 
L 634 4353 
L 1741 4353 
L 1741 3322 
L 2663 3322 
L 2663 2944 
L 1741 2944 
L 1741 909 
Q 1741 475 1809 369 
Q 1878 263 2059 263 
Q 2259 263 2356 397 
Q 2453 531 2459 813 
L 2925 813 
Q 2897 313 2651 111 
Q 2406 -91 1806 -91 
Q 1122 -91 878 123 
Q 634 338 634 909 
L 634 2944 
z
" transform="scale(0.015625)"/>
       <path id="DejaVuSerif-Bold-61" d="M 3525 2041 
L 3525 378 
L 4000 378 
L 4000 0 
L 2419 0 
L 2419 422 
Q 2200 159 1931 34 
Q 1663 -91 1319 -91 
Q 809 -91 536 182 
Q 263 456 263 966 
Q 263 1525 655 1803 
Q 1047 2081 1838 2081 
L 2419 2081 
L 2419 2278 
Q 2419 2681 2228 2873 
Q 2038 3066 1638 3066 
Q 1306 3066 1126 2930 
Q 947 2794 872 2484 
L 519 2484 
L 519 3200 
Q 816 3306 1134 3359 
Q 1453 3413 1806 3413 
Q 2697 3413 3111 3081 
Q 3525 2750 3525 2041 
z
M 2419 1044 
L 2419 1709 
L 2003 1709 
Q 1694 1709 1528 1540 
Q 1363 1372 1363 1056 
Q 1363 741 1483 584 
Q 1603 428 1850 428 
Q 2106 428 2262 597 
Q 2419 766 2419 1044 
z
" transform="scale(0.015625)"/>
       <path id="DejaVuSerif-Bold-67" d="M 3853 2944 
L 3853 44 
Q 3853 -656 3354 -1039 
Q 2856 -1422 1947 -1422 
Q 1616 -1422 1275 -1370 
Q 934 -1319 575 -1216 
L 575 -422 
L 928 -422 
Q 975 -750 1192 -909 
Q 1409 -1069 1813 -1069 
Q 2325 -1069 2536 -823 
Q 2747 -578 2747 44 
L 2747 422 
Q 2606 163 2367 36 
Q 2128 -91 1778 -91 
Q 1072 -91 667 378 
Q 263 847 263 1663 
Q 263 2481 667 2947 
Q 1072 3413 1778 3413 
Q 2128 3413 2367 3286 
Q 2606 3159 2747 2900 
L 2747 3322 
L 4325 3322 
L 4325 2944 
L 3853 2944 
z
M 2747 1825 
Q 2747 2406 2597 2665 
Q 2447 2925 2119 2925 
Q 1775 2925 1636 2651 
Q 1497 2378 1497 1663 
Q 1497 947 1637 672 
Q 1778 397 2119 397 
Q 2447 397 2597 656 
Q 2747 916 2747 1497 
L 2747 1825 
z
" transform="scale(0.015625)"/>
       <path id="DejaVuSerif-Bold-6c" d="M 1797 378 
L 2272 378 
L 2272 0 
L 219 0 
L 219 378 
L 691 378 
L 691 4488 
L 219 4488 
L 219 4863 
L 1797 4863 
L 1797 378 
z
" transform="scale(0.015625)"/>
       <path id="DejaVuSerif-Bold-20" transform="scale(0.015625)"/>
       <path id="DejaVuSerif-Bold-72" d="M 3438 3359 
L 3438 2369 
L 3084 2369 
Q 3066 2634 2941 2764 
Q 2816 2894 2578 2894 
Q 2216 2894 2006 2575 
Q 1797 2256 1797 1691 
L 1797 378 
L 2400 378 
L 2400 0 
L 219 0 
L 219 378 
L 691 378 
L 691 2944 
L 184 2944 
L 184 3322 
L 1797 3322 
L 1797 2731 
Q 1959 3078 2226 3245 
Q 2494 3413 2881 3413 
Q 2978 3413 3117 3398 
Q 3256 3384 3438 3359 
z
" transform="scale(0.015625)"/>
       <path id="DejaVuSerif-Bold-6f" d="M 2138 263 
Q 2488 263 2630 563 
Q 2772 863 2772 1663 
Q 2772 2463 2631 2761 
Q 2491 3059 2138 3059 
Q 1784 3059 1640 2757 
Q 1497 2456 1497 1663 
Q 1497 869 1640 566 
Q 1784 263 2138 263 
z
M 2138 -91 
Q 1259 -91 761 376 
Q 263 844 263 1663 
Q 263 2484 761 2948 
Q 1259 3413 2138 3413 
Q 3019 3413 3516 2948 
Q 4013 2484 4013 1663 
Q 4013 844 3514 376 
Q 3016 -91 2138 -91 
z
" transform="scale(0.015625)"/>
       <path id="DejaVuSerif-Bold-70" d="M 1728 1825 
L 1728 1497 
Q 1728 916 1876 656 
Q 2025 397 2356 397 
Q 2697 397 2836 672 
Q 2975 947 2975 1663 
Q 2975 2378 2836 2651 
Q 2697 2925 2356 2925 
Q 2025 2925 1876 2665 
Q 1728 2406 1728 1825 
z
M 622 2944 
L 147 2944 
L 147 3322 
L 1728 3322 
L 1728 2900 
Q 1869 3159 2106 3286 
Q 2344 3413 2694 3413 
Q 3403 3413 3811 2945 
Q 4219 2478 4219 1663 
Q 4219 847 3811 378 
Q 3403 -91 2694 -91 
Q 2344 -91 2106 36 
Q 1869 163 1728 422 
L 1728 -953 
L 2241 -953 
L 2241 -1331 
L 147 -1331 
L 147 -953 
L 622 -953 
L 622 2944 
z
" transform="scale(0.015625)"/>
       <path id="DejaVuSerif-Bold-79" d="M 1997 -750 
Q 1847 -1116 1634 -1269 
Q 1422 -1422 1063 -1422 
Q 909 -1422 721 -1387 
Q 534 -1353 313 -1288 
L 313 -594 
L 666 -597 
Q 675 -838 779 -953 
Q 884 -1069 1094 -1069 
Q 1297 -1069 1422 -958 
Q 1547 -847 1672 -538 
L 1722 -422 
L 275 2944 
L -84 2944 
L -84 3322 
L 1831 3322 
L 1831 2944 
L 1434 2944 
L 2278 978 
L 3066 2944 
L 2625 2944 
L 2625 3322 
L 3872 3322 
L 3872 2944 
L 3469 2944 
L 1997 -750 
z
" transform="scale(0.015625)"/>
       <path id="DejaVuSerif-Bold-28" d="M 2694 -997 
Q 1641 -606 1122 122 
Q 603 850 603 1931 
Q 603 3013 1115 3731 
Q 1628 4450 2694 4863 
L 2694 4488 
Q 2200 4188 1983 3598 
Q 1766 3009 1766 1931 
Q 1766 856 1983 267 
Q 2200 -322 2694 -622 
L 2694 -997 
z
" transform="scale(0.015625)"/>
       <path id="DejaVuSerif-Bold-73" d="M 300 97 
L 300 1025 
L 653 1025 
Q 697 653 931 458 
Q 1166 263 1569 263 
Q 1906 263 2086 380 
Q 2266 497 2266 716 
Q 2266 916 2152 1025 
Q 2038 1134 1709 1216 
L 1253 1331 
Q 738 1459 506 1698 
Q 275 1938 275 2344 
Q 275 2884 650 3148 
Q 1025 3413 1806 3413 
Q 2100 3413 2433 3364 
Q 2766 3316 3169 3213 
L 3169 2375 
L 2816 2375 
Q 2788 2716 2573 2887 
Q 2359 3059 1959 3059 
Q 1622 3059 1448 2951 
Q 1275 2844 1275 2638 
Q 1275 2469 1375 2372 
Q 1475 2275 1734 2209 
L 2188 2094 
Q 2841 1928 3091 1684 
Q 3341 1441 3341 1006 
Q 3341 444 2939 176 
Q 2538 -91 1691 -91 
Q 1381 -91 1034 -44 
Q 688 3 300 97 
z
" transform="scale(0.015625)"/>
       <path id="DejaVuSerif-Bold-68" d="M 219 0 
L 219 378 
L 691 378 
L 691 4488 
L 197 4488 
L 197 4863 
L 1797 4863 
L 1797 2853 
Q 1997 3150 2253 3281 
Q 2509 3413 2900 3413 
Q 3459 3413 3745 3083 
Q 4031 2753 4031 2113 
L 4031 378 
L 4506 378 
L 4506 0 
L 2522 0 
L 2522 378 
L 2925 378 
L 2925 2144 
Q 2925 2566 2817 2730 
Q 2709 2894 2444 2894 
Q 2109 2894 1953 2648 
Q 1797 2403 1797 1869 
L 1797 378 
L 2203 378 
L 2203 0 
L 219 0 
z
" transform="scale(0.015625)"/>
       <path id="DejaVuSerif-Bold-66" d="M 3097 4031 
L 2747 4031 
Q 2722 4275 2605 4394 
Q 2488 4513 2272 4513 
Q 2022 4513 1909 4333 
Q 1797 4153 1797 3750 
L 1797 3322 
L 2631 3322 
L 2631 2944 
L 1797 2944 
L 1797 378 
L 2438 378 
L 2438 0 
L 219 0 
L 219 378 
L 691 378 
L 691 2944 
L 197 2944 
L 197 3322 
L 691 3322 
L 691 3738 
Q 691 4291 1044 4577 
Q 1397 4863 2081 4863 
Q 2347 4863 2600 4833 
Q 2853 4803 3097 4744 
L 3097 4031 
z
" transform="scale(0.015625)"/>
       <path id="DejaVuSerif-Bold-64" d="M 2747 1497 
L 2747 1825 
Q 2747 2406 2597 2665 
Q 2447 2925 2119 2925 
Q 1775 2925 1636 2651 
Q 1497 2378 1497 1663 
Q 1497 947 1637 672 
Q 1778 397 2119 397 
Q 2447 397 2597 656 
Q 2747 916 2747 1497 
z
M 3853 378 
L 4325 378 
L 4325 0 
L 2747 0 
L 2747 422 
Q 2606 163 2367 36 
Q 2128 -91 1778 -91 
Q 1072 -91 667 378 
Q 263 847 263 1663 
Q 263 2481 667 2947 
Q 1072 3413 1778 3413 
Q 2128 3413 2367 3286 
Q 2606 3159 2747 2900 
L 2747 4488 
L 2272 4488 
L 2272 4863 
L 3853 4863 
L 3853 378 
z
" transform="scale(0.015625)"/>
       <path id="DejaVuSerif-Bold-29" d="M 325 -997 
L 325 -622 
Q 819 -322 1036 267 
Q 1253 856 1253 1931 
Q 1253 3009 1036 3598 
Q 819 4188 325 4488 
L 325 4863 
Q 1391 4450 1905 3731 
Q 2419 3013 2419 1931 
Q 2419 850 1898 122 
Q 1378 -606 325 -997 
z
" transform="scale(0.015625)"/>
      </defs>
      <use xlink:href="#DejaVuSerif-Bold-45"/>
      <use xlink:href="#DejaVuSerif-Bold-6e" transform="translate(76.220703 0)"/>
      <use xlink:href="#DejaVuSerif-Bold-74" transform="translate(148.925781 0)"/>
      <use xlink:href="#DejaVuSerif-Bold-61" transform="translate(195.117188 0)"/>
      <use xlink:href="#DejaVuSerif-Bold-6e" transform="translate(259.912109 0)"/>
      <use xlink:href="#DejaVuSerif-Bold-67" transform="translate(332.617188 0)"/>
      <use xlink:href="#DejaVuSerif-Bold-6c" transform="translate(402.539062 0)"/>
      <use xlink:href="#DejaVuSerif-Bold-65" transform="translate(440.527344 0)"/>
      <use xlink:href="#DejaVuSerif-Bold-6d" transform="translate(504.150391 0)"/>
      <use xlink:href="#DejaVuSerif-Bold-65" transform="translate(609.960938 0)"/>
      <use xlink:href="#DejaVuSerif-Bold-6e" transform="translate(673.583984 0)"/>
      <use xlink:href="#DejaVuSerif-Bold-74" transform="translate(746.289062 0)"/>
      <use xlink:href="#DejaVuSerif-Bold-20" transform="translate(792.480469 0)"/>
      <use xlink:href="#DejaVuSerif-Bold-45" transform="translate(827.294922 0)"/>
      <use xlink:href="#DejaVuSerif-Bold-6e" transform="translate(903.515625 0)"/>
      <use xlink:href="#DejaVuSerif-Bold-74" transform="translate(976.220703 0)"/>
      <use xlink:href="#DejaVuSerif-Bold-72" transform="translate(1022.412109 0)"/>
      <use xlink:href="#DejaVuSerif-Bold-6f" transform="translate(1075.097656 0)"/>
      <use xlink:href="#DejaVuSerif-Bold-70" transform="translate(1141.796875 0)"/>
      <use xlink:href="#DejaVuSerif-Bold-79" transform="translate(1211.71875 0)"/>
      <use xlink:href="#DejaVuSerif-Bold-20" transform="translate(1269.824219 0)"/>
      <use xlink:href="#DejaVuSerif-Bold-28" transform="translate(1304.638672 0)"/>
      <use xlink:href="#DejaVuSerif-Bold-73" transform="translate(1351.953125 0)"/>
      <use xlink:href="#DejaVuSerif-Bold-68" transform="translate(1408.251953 0)"/>
      <use xlink:href="#DejaVuSerif-Bold-69" transform="translate(1480.957031 0)"/>
      <use xlink:href="#DejaVuSerif-Bold-66" transform="translate(1518.945312 0)"/>
      <use xlink:href="#DejaVuSerif-Bold-74" transform="translate(1561.962891 0)"/>
      <use xlink:href="#DejaVuSerif-Bold-65" transform="translate(1608.154297 0)"/>
      <use xlink:href="#DejaVuSerif-Bold-64" transform="translate(1671.777344 0)"/>
      <use xlink:href="#DejaVuSerif-Bold-29" transform="translate(1741.699219 0)"/>
     </g>
    </g>
   </g>
   <g id="line2d_25">
    <path d="M 165.825511 41.56892 
L 226.371818 270.54733 
L 286.918125 41.56892 
L 347.464432 41.56892 
L 408.010739 41.56892 
" clip-path="url(#p21a9e64174)" style="fill: none; stroke: #440154; stroke-width: 2; stroke-linecap: round"/>
   </g>
   <g id="line2d_26">
    <path d="M 165.825511 41.56892 
L 226.371818 270.54733 
L 286.918125 41.56892 
L 347.464432 41.56892 
L 408.010739 41.56892 
" clip-path="url(#p21a9e64174)" style="fill: none; stroke: #21918c; stroke-width: 2; stroke-linecap: round"/>
   </g>
   <g id="line2d_27">
    <path d="M 165.825511 41.56892 
L 226.371818 270.54733 
L 286.918125 41.56892 
L 347.464432 41.56892 
L 408.010739 41.56892 
" clip-path="url(#p21a9e64174)" style="fill: none; stroke: #fde725; stroke-width: 2; stroke-linecap: round"/>
   </g>
   <g id="patch_3">
    <path d="M 153.71625 281.99625 
L 153.71625 30.12 
" style="fill: none; stroke: #cccccc; stroke-linejoin: miter; stroke-linecap: square"/>
   </g>
   <g id="patch_4">
    <path d="M 420.12 281.99625 
L 420.12 30.12 
" style="fill: none; stroke: #cccccc; stroke-linejoin: miter; stroke-linecap: square"/>
   </g>
   <g id="patch_5">
    <path d="M 153.71625 281.99625 
L 420.12 281.99625 
" style="fill: none; stroke: #cccccc; stroke-linejoin: miter; stroke-linecap: square"/>
   </g>
   <g id="patch_6">
    <path d="M 153.71625 30.12 
L 420.12 30.12 
" style="fill: none; stroke: #cccccc; stroke-linejoin: miter; stroke-linecap: square"/>
   </g>
   <g id="text_15">
    <!-- Entropy Dynamics Over Time -->
    <g style="fill: #262626" transform="translate(156.225625 24.12) scale(0.16 -0.16)">
     <defs>
      <path id="DejaVuSerif-Bold-44" d="M 2100 378 
L 2534 378 
Q 3266 378 3605 847 
Q 3944 1316 3944 2338 
Q 3944 3353 3606 3820 
Q 3269 4288 2534 4288 
L 2100 4288 
L 2100 378 
z
M 300 0 
L 300 378 
L 897 378 
L 897 4288 
L 300 4288 
L 300 4666 
L 2694 4666 
Q 3950 4666 4615 4066 
Q 5281 3466 5281 2338 
Q 5281 1203 4614 601 
Q 3947 0 2694 0 
L 300 0 
z
" transform="scale(0.015625)"/>
      <path id="DejaVuSerif-Bold-63" d="M 3609 1038 
Q 3491 469 3123 189 
Q 2756 -91 2125 -91 
Q 1238 -91 750 368 
Q 263 828 263 1663 
Q 263 2488 744 2950 
Q 1225 3413 2081 3413 
Q 2428 3413 2781 3347 
Q 3134 3281 3500 3150 
L 3500 2228 
L 3150 2228 
Q 3100 2650 2903 2854 
Q 2706 3059 2350 3059 
Q 1888 3059 1692 2746 
Q 1497 2434 1497 1663 
Q 1497 909 1687 586 
Q 1878 263 2309 263 
Q 2644 263 2845 463 
Q 3047 663 3091 1038 
L 3609 1038 
z
" transform="scale(0.015625)"/>
      <path id="DejaVuSerif-Bold-4f" d="M 2784 288 
Q 3381 288 3672 791 
Q 3963 1294 3963 2328 
Q 3963 3366 3672 3869 
Q 3381 4372 2784 4372 
Q 2191 4372 1898 3864 
Q 1606 3356 1606 2328 
Q 1606 1303 1898 795 
Q 2191 288 2784 288 
z
M 2784 -91 
Q 1606 -91 937 553 
Q 269 1197 269 2328 
Q 269 3459 939 4104 
Q 1609 4750 2784 4750 
Q 3963 4750 4631 4106 
Q 5300 3463 5300 2328 
Q 5300 1197 4629 553 
Q 3959 -91 2784 -91 
z
" transform="scale(0.015625)"/>
      <path id="DejaVuSerif-Bold-76" d="M 1428 0 
L 250 2944 
L -116 2944 
L -116 3322 
L 1791 3322 
L 1791 2944 
L 1388 2944 
L 2228 844 
L 3066 2944 
L 2631 2944 
L 2631 3322 
L 3878 3322 
L 3878 2944 
L 3494 2944 
L 2316 0 
L 1428 0 
z
" transform="scale(0.015625)"/>
     </defs>
     <use xlink:href="#DejaVuSerif-Bold-45"/>
     <use xlink:href="#DejaVuSerif-Bold-6e" transform="translate(76.220703 0)"/>
     <use xlink:href="#DejaVuSerif-Bold-74" transform="translate(148.925781 0)"/>
     <use xlink:href="#DejaVuSerif-Bold-72" transform="translate(195.117188 0)"/>
     <use xlink:href="#DejaVuSerif-Bold-6f" transform="translate(247.802734 0)"/>
     <use xlink:href="#DejaVuSerif-Bold-70" transform="translate(314.501953 0)"/>
     <use xlink:href="#DejaVuSerif-Bold-79" transform="translate(384.423828 0)"/>
     <use xlink:href="#DejaVuSerif-Bold-20" transform="translate(442.529297 0)"/>
     <use xlink:href="#DejaVuSerif-Bold-44" transform="translate(477.34375 0)"/>
     <use xlink:href="#DejaVuSerif-Bold-79" transform="translate(564.0625 0)"/>
     <use xlink:href="#DejaVuSerif-Bold-6e" transform="translate(622.167969 0)"/>
     <use xlink:href="#DejaVuSerif-Bold-61" transform="translate(694.873047 0)"/>
     <use xlink:href="#DejaVuSerif-Bold-6d" transform="translate(759.667969 0)"/>
     <use xlink:href="#DejaVuSerif-Bold-69" transform="translate(865.478516 0)"/>
     <use xlink:href="#DejaVuSerif-Bold-63" transform="translate(903.466797 0)"/>
     <use xlink:href="#DejaVuSerif-Bold-73" transform="translate(964.355469 0)"/>
     <use xlink:href="#DejaVuSerif-Bold-20" transform="translate(1020.654297 0)"/>
     <use xlink:href="#DejaVuSerif-Bold-4f" transform="translate(1055.46875 0)"/>
     <use xlink:href="#DejaVuSerif-Bold-76" transform="translate(1142.578125 0)"/>
     <use xlink:href="#DejaVuSerif-Bold-65" transform="translate(1200.683594 0)"/>
     <use xlink:href="#DejaVuSerif-Bold-72" transform="translate(1264.306641 0)"/>
     <use xlink:href="#DejaVuSerif-Bold-20" transform="translate(1316.992188 0)"/>
     <use xlink:href="#DejaVuSerif-Bold-54" transform="translate(1351.806641 0)"/>
     <use xlink:href="#DejaVuSerif-Bold-69" transform="translate(1426.220703 0)"/>
     <use xlink:href="#DejaVuSerif-Bold-6d" transform="translate(1464.208984 0)"/>
     <use xlink:href="#DejaVuSerif-Bold-65" transform="translate(1570.019531 0)"/>
    </g>
   </g>
   <g id="legend_1">
    <g id="line2d_28">
     <path d="M 356.235625 43.218437 
L 366.235625 43.218437 
L 376.235625 43.218437 
" style="fill: none; stroke: #440154; stroke-width: 2; stroke-linecap: round"/>
    </g>
    <g id="text_16">
     <!-- [0, 1] -->
     <g style="fill: #262626" transform="translate(384.235625 46.718437) scale(0.1 -0.1)">
      <defs>
       <path id="DejaVuSerif-5b" d="M 550 4863 
L 2003 4863 
L 2003 4531 
L 1147 4531 
L 1147 -513 
L 2003 -513 
L 2003 -844 
L 550 -844 
L 550 4863 
z
" transform="scale(0.015625)"/>
       <path id="DejaVuSerif-2c" d="M 231 -622 
Q 525 -406 662 -114 
Q 800 178 800 594 
L 800 709 
L 1416 709 
Q 1391 175 1164 -208 
Q 938 -591 481 -872 
L 231 -622 
z
" transform="scale(0.015625)"/>
       <path id="DejaVuSerif-20" transform="scale(0.015625)"/>
       <path id="DejaVuSerif-5d" d="M 1947 4863 
L 1947 -844 
L 494 -844 
L 494 -513 
L 1350 -513 
L 1350 4531 
L 494 4531 
L 494 4863 
L 1947 4863 
z
" transform="scale(0.015625)"/>
      </defs>
      <use xlink:href="#DejaVuSerif-5b"/>
      <use xlink:href="#DejaVuSerif-30" transform="translate(39.013672 0)"/>
      <use xlink:href="#DejaVuSerif-2c" transform="translate(102.636719 0)"/>
      <use xlink:href="#DejaVuSerif-20" transform="translate(134.423828 0)"/>
      <use xlink:href="#DejaVuSerif-31" transform="translate(166.210938 0)"/>
      <use xlink:href="#DejaVuSerif-5d" transform="translate(229.833984 0)"/>
     </g>
    </g>
    <g id="line2d_29">
     <path d="M 356.235625 57.896563 
L 366.235625 57.896563 
L 376.235625 57.896563 
" style="fill: none; stroke: #21918c; stroke-width: 2; stroke-linecap: round"/>
    </g>
    <g id="text_17">
     <!-- [1, 2] -->
     <g style="fill: #262626" transform="translate(384.235625 61.396563) scale(0.1 -0.1)">
      <use xlink:href="#DejaVuSerif-5b"/>
      <use xlink:href="#DejaVuSerif-31" transform="translate(39.013672 0)"/>
      <use xlink:href="#DejaVuSerif-2c" transform="translate(102.636719 0)"/>
      <use xlink:href="#DejaVuSerif-20" transform="translate(134.423828 0)"/>
      <use xlink:href="#DejaVuSerif-32" transform="translate(166.210938 0)"/>
      <use xlink:href="#DejaVuSerif-5d" transform="translate(229.833984 0)"/>
     </g>
    </g>
    <g id="line2d_30">
     <path d="M 356.235625 72.574687 
L 366.235625 72.574687 
L 376.235625 72.574687 
" style="fill: none; stroke: #fde725; stroke-width: 2; stroke-linecap: round"/>
    </g>
    <g id="text_18">
     <!-- [2, 3] -->
     <g style="fill: #262626" transform="translate(384.235625 76.074687) scale(0.1 -0.1)">
      <use xlink:href="#DejaVuSerif-5b"/>
      <use xlink:href="#DejaVuSerif-32" transform="translate(39.013672 0)"/>
      <use xlink:href="#DejaVuSerif-2c" transform="translate(102.636719 0)"/>
      <use xlink:href="#DejaVuSerif-20" transform="translate(134.423828 0)"/>
      <use xlink:href="#DejaVuSerif-33" transform="translate(166.210938 0)"/>
      <use xlink:href="#DejaVuSerif-5d" transform="translate(229.833984 0)"/>
     </g>
    </g>
   </g>
  </g>
 </g>
 <defs>
  <clipPath id="p21a9e64174">
   <rect x="153.71625" y="30.12" width="266.40375" height="251.87625"/>
  </clipPath>
 </defs>
</svg>
